<svg xmlns:xlink="http://www.w3.org/1999/xlink"  xmlns="http://www.w3.org/2000/svg" width="80" height="32" viewBox="0 0 80 32">
    <g fill="none" fill-rule="evenodd">
        <g>
            <g>
                <g>
                    <g>
                        <path fill="#F6BF35" d="M21.225 8.637c1.387 1.387 1.387 3.634.003 5.02l-7.53 7.532c-1.386 1.387-3.634 1.388-5.02.002L1.14 13.665c-1.39-1.384-1.39-3.632-.002-5.018l7.53-7.532c1.386-1.387 3.633-1.389 5.021-.003l7.536 7.525z" transform="translate(-451 -296) translate(435 280) translate(16 16) translate(6.667 5.333)"/>
                        <path fill="#1A1919" d="M13.699 7.024L12.433 8.29c-.488.487-.488 1.28.002 1.767.49.489 1.28.487 1.768 0l.784-.784.959.956v.002l.787.784-5.396 5.398c-.249.247-.543.265-.774.034l-4.585-4.58c-.197-.195-.197-.495.016-.708l6.322-6.323c.488-.489.488-1.28 0-1.77-.488-.487-1.281-.486-1.771.002L3.36 10.255c-.698.7-.686 1.845.023 2.555l6.263 6.253c.71.712 1.856.72 2.554.02l6.804-6.805c.698-.698.689-1.843-.022-2.554l-.968-.965-.297-.298L16.255 7c-.7-.698-1.847-.688-2.556.023M54.798 5.613c-.42 0-.652.238-.652.67 0 .246.086.66.652.66.59 0 .68-.414.68-.66 0-.25-.09-.67-.68-.67M38.073 9.54c0-.527 0-.744.886-.744h3.195c.77 0 .77.15.77.652v2.424c0 .563 0 .697-.77.697H38.96c-.886 0-.886-.176-.886-.697V9.54zm3.92-2.085h-2.886c-1.8 0-2.504.585-2.504 2.085v2.332c0 1.474.693 2.05 2.474 2.05h2.915c1.742 0 2.421-.576 2.421-2.05V9.53c0-1.474-.7-2.074-2.42-2.074zM51.067 12.57h-3.304c-.979 0-.979-.216-.979-.688V8.796h4.09c.92 0 .92.227.92.779v2.238c0 .626 0 .756-.727.756m-.4-5.114h-3.883V3.548c0-.441-.272-.705-.725-.705-.458 0-.722.257-.722.705v8.334c0 1.45.759 2.039 2.617 2.039h2.712c1.807 0 2.543-.604 2.543-2.084V9.529c0-1.474-.736-2.074-2.543-2.074M54.782 7.253c-.406 0-.65.28-.65.748v5.16c0 .475.251.76.67.76.432 0 .69-.285.69-.76v-5.16c0-.475-.258-.748-.71-.748M57.103 2.843c-.437 0-.687.262-.687.72v9.638c0 .458.254.72.697.72.43 0 .689-.27.689-.72V3.563c0-.458-.256-.72-.7-.72M60.168 9.448c0-.476 0-.652.883-.652h3.583c.316 0 .414.048.444.078.057.052.055.222.055.418v.772h-4.965v-.616zm4.263-1.993h-3.146c-1.83 0-2.578.598-2.578 2.061v2.32c0 1.384 1.028 2.085 3.048 2.085h.84c.406 0 .657-.261.657-.682 0-.425-.24-.67-.656-.67h-1.108c-1.32 0-1.32-.446-1.32-.593v-.537h5.717c.255 0 .684-.093.684-.715v-1.44c0-1.097-.362-1.83-2.138-1.83zM33.188 7.398h-1.074c-.8 0-1.366.119-1.761.372-.394-.253-.96-.372-1.76-.372h-1.076c-1.792 0-2.49.584-2.49 2.084v3.735c0 .41.223.58.405.647.19.073.461.08.657 0 .147-.058.396-.22.396-.647V9.482c0-.526 0-.744.884-.744h1.37c.875 0 .879.229.884.686h.002l-.002.058v3.735c0 .183.045.336.135.451.068.088.154.154.26.195.093.037.2.058.316.058h.034c.119 0 .226-.02.319-.057.104-.041.194-.107.26-.194.09-.117.138-.27.138-.453V9.482h-.004l.004-.058c.003-.457.005-.686.882-.686h1.37c.884 0 .884.218.884.744v3.735c0 .428.248.589.395.646.09.036.192.056.301.057l.027.001c.12 0 .232-.019.327-.056.154-.057.41-.217.41-.648V9.482c0-1.5-.7-2.084-2.493-2.084" transform="translate(-451 -296) translate(435 280) translate(16 16) translate(6.667 5.333)"/>
                    </g>
                </g>
            </g>
        </g>
    </g>
</svg>
