<svg xmlns:xlink="http://www.w3.org/1999/xlink"  xmlns="http://www.w3.org/2000/svg" width="40" height="40" viewBox="0 0 40 40">
    <g fill="none" fill-rule="evenodd">
        <g>
            <g>
                <g>
                    <g>
                        <g>
                            <g>
                                <path fill="#8A8B8A" d="M1.446.376C.12 1.14-.337 2.849.426 4.176L6.21 14.191c.766 1.326 2.474 1.782 3.8 1.018 1.325-.765 1.784-2.474 1.017-3.8L5.244 1.394C4.48.068 2.77-.389 1.446.376" transform="translate(-759 -524) translate(435 385) translate(300 114) translate(16 17) translate(8 8) translate(3.75 12.5)"/>
                                <path fill="#E9832F" d="M15.792.376c1.325.764 1.784 2.473 1.019 3.8l-5.784 10.016c-.766 1.326-2.474 1.782-3.8 1.018-1.324-.765-1.782-2.474-1.017-3.8l5.783-10.017C12.758.068 14.468-.389 15.792.376M22.26 15.21c-1.324-.765-1.782-2.476-1.018-3.8l5.785-10.017C27.79.068 29.5-.389 30.826.375c1.325.765 1.782 2.475 1.017 3.799L26.06 14.192c-.765 1.326-2.473 1.782-3.798 1.018M14.73 15.21c-1.325-.765-1.784-2.476-1.019-3.8l5.785-10.017C20.26.068 21.969-.389 23.294.375c1.325.765 1.783 2.475 1.019 3.799l-5.784 10.018c-.765 1.326-2.474 1.782-3.799 1.018" transform="translate(-759 -524) translate(435 385) translate(300 114) translate(16 17) translate(8 8) translate(3.75 12.5)"/>
                            </g>
                        </g>
                    </g>
                </g>
            </g>
        </g>
    </g>
</svg>
