<?xml version="1.0" encoding="UTF-8"?>
<svg width="54px" height="11px" viewBox="0 0 54 11" version="1.1" xmlns="http://www.w3.org/2000/svg" xmlns:xlink="http://www.w3.org/1999/xlink">
    <!-- Generator: Sketch 62 (91390) - https://sketch.com -->
    <title>viettel/viettel-large</title>
    <desc>Created with Sketch.</desc>
    <g id="Home-" stroke="none" stroke-width="1" fill="none" fill-rule="evenodd">
        <g id="viettel-large" fill="#EF0032" fill-rule="nonzero">
            <g id="Viettel_logo_2021" transform="translate(0.273171, 0.952195)">
                <path d="M11.4172051,0.0331424791 C11.4172051,0.0331424791 10.8892474,0.069627121 10.8886019,0.540721531 L10.8864348,2.1210489 C10.8864348,2.1210489 11.2994871,1.5842959 11.8806843,1.5842959 L12.5726031,1.5842959 C12.5726031,1.5842959 13.1384659,1.55152631 13.1384659,1.09447558 L13.1384659,0.529896708 C13.1384659,0.529896708 13.1383988,0.0331424791 12.5602416,0.0331424791 L11.4172051,0.0331424791 Z M26.2485441,0.396955762 C25.6197472,0.396955762 25.6198271,0.947664844 25.6198271,0.947664844 L25.6198271,2.19944703 L24.228155,2.19944703 L24.228155,3.04056465 C24.228155,3.04056465 24.228155,3.58129511 24.8568706,3.58129511 L25.6198271,3.58129511 L25.6198271,7.77707335 C25.6610607,9.1524506 27.1556069,9.95048161 28.4338175,9.95048161 L30.1347117,9.95048161 C30.598578,9.95048161 30.6708013,9.32907337 30.6708013,9.32907337 L30.6708013,8.52804093 C29.8255332,8.6882598 29.1347899,8.51806094 29.1347899,8.51806094 C27.8256555,8.14755769 27.8669106,7.18627771 27.8669106,7.18627771 L27.8669106,3.58129511 L32.29944,3.58129511 L32.29944,7.77707335 C32.3406736,9.1524506 33.8353943,9.95048161 35.1136048,9.95048161 L36.8143259,9.95048161 C37.2781916,9.95048161 37.3504142,9.32907337 37.3504142,9.32907337 L37.3504142,8.52804093 C36.5051461,8.6882598 35.8145766,8.51806094 35.8145766,8.51806094 C34.5054422,8.14755769 34.546698,7.18627771 34.546698,7.18627771 L34.546698,3.58129511 L36.7020237,3.58129511 C37.3316284,3.58129511 37.3194225,3.08538597 37.3194225,3.08538597 L37.3194225,2.19944703 L34.546698,2.19944703 L34.546698,1.00787745 C34.546698,0.431349057 34.010607,0.396955762 34.010607,0.396955762 L32.928157,0.396955762 C32.2993602,0.396955762 32.29944,0.947664844 32.29944,0.947664844 L32.29944,2.19944703 L27.8669106,2.19944703 L27.8669106,1.00787745 C27.8669106,0.431349057 27.3309955,0.396955762 27.3309955,0.396955762 L26.2485441,0.396955762 Z M49.0975421,0.396955762 C48.4687446,0.396955762 48.4688251,0.947664844 48.4688251,0.947664844 L48.4688251,7.77707335 C48.510058,9.1524506 50.0046042,9.95048161 51.2828148,9.95048161 L52.9837096,9.95048161 C53.447576,9.95048161 53.5197993,9.32907337 53.5197993,9.32907337 L53.5197993,8.52804093 C52.6745305,8.6882598 51.9837879,8.51806094 51.9837879,8.51806094 C50.6746529,8.14755769 50.715908,7.18627771 50.715908,7.18627771 L50.715908,1.00787745 C50.715908,0.431349057 50.1799928,0.396955762 50.1799928,0.396955762 L49.0975421,0.396955762 Z M18.6835748,2.14462368 C18.3130202,2.14551369 16.7560942,2.19053171 15.5621034,2.85705118 C14.7781746,3.29466153 14.277417,4.02650451 14.2552227,5.55765982 C14.2552227,5.55765982 14.2601743,7.82713299 14.5900401,8.36786834 C14.5900401,8.36786834 14.977065,9.13942095 15.8422481,9.60510432 C16.2161574,9.80635964 16.9679171,9.95048161 17.5278226,9.95048161 L23.0220845,9.95048161 C23.0220845,9.95048161 23.5581735,9.89992336 23.5581735,9.25905049 L23.5581735,8.55814711 L18.0947294,8.55814711 C18.0947294,8.55814711 16.6310809,8.51804399 16.6001563,6.90584988 C16.5985327,6.82134258 16.598271,6.75344971 16.5971975,6.67548429 L22.7849455,6.67548429 C22.7849455,6.67548429 23.8673962,6.59544622 23.8673962,5.23359338 C23.8673962,5.23359338 24.0425996,3.8315791 22.9190112,2.96039382 C21.7954221,2.08920769 19.9922543,2.17138326 18.7652342,2.14532324 C18.7652342,2.14532324 18.7365111,2.14454372 18.6835755,2.14462368 L18.6835748,2.14462368 Z M42.165816,2.14462368 C41.7952607,2.145427 40.238336,2.19053171 39.0443446,2.85705118 C38.2604151,3.29466153 37.7596581,4.02650451 37.7374633,5.55765982 C37.7374633,5.55765982 37.7424148,7.82713299 38.0722806,8.36786834 C38.0722806,8.36786834 38.4593069,9.13942095 39.3244906,9.60510432 C39.6983979,9.80635964 40.4501576,9.95048161 41.0100638,9.95048161 L46.504325,9.95048161 C46.504325,9.95048161 47.0404153,9.89992401 47.0404153,9.25905049 L47.0404153,8.55814711 L41.5769706,8.55814711 C41.5769706,8.55814711 40.1133221,8.51804399 40.0823969,6.90584988 C40.0807866,6.82134258 40.0803371,6.75344971 40.0792635,6.67548429 L46.2671867,6.67548429 C46.2671867,6.67548429 47.3496381,6.59544622 47.3496381,5.23359338 C47.3496381,5.23359338 47.5248401,3.8315791 46.4012524,2.96039382 C45.2776639,2.08920769 43.4744955,2.17138326 42.2474748,2.14532324 C42.2474748,2.14532324 42.2187522,2.14454372 42.1658173,2.14462368 L42.165816,2.14462368 Z M0.0487713887,2.22667783 L3.88357684,9.41651626 C3.88357684,9.41651626 4.08812831,10.0250715 5.22580175,10.0250715 L5.63478962,10.0250715 C5.63478962,10.0250715 6.47847017,10.0622481 6.88752152,9.35444439 C7.29657293,8.64663936 10.7225013,2.22667783 10.7225013,2.22667783 L8.97111374,2.22667783 C8.97111374,2.22667783 8.30649241,2.32606295 7.88465881,3.17046174 C7.4628232,4.01486053 5.51987542,8.02570495 5.51987542,8.02570495 C5.51987542,8.02570495 5.36644155,8.24922233 5.25139625,8.02570495 C5.13635,7.80218757 2.72033789,2.90965255 2.72033789,2.90965255 C2.72033789,2.90965255 2.28573338,2.22667783 1.79998449,2.22667783 L0.0487713887,2.22667783 Z M11.4382735,2.22667783 C11.4382735,2.22667783 10.8886019,2.22676256 10.8886019,2.83523273 L10.8886019,9.42903296 C10.8886019,9.42903296 10.9269156,9.95048161 11.4765778,9.95048161 L12.7037159,9.95048161 C12.7037159,9.95048161 13.1384726,9.92573824 13.1384726,9.28002268 L13.1384726,2.76064318 C13.1384726,2.76064318 13.0488396,2.22667783 12.6142225,2.22667783 L11.4382735,2.22667783 Z M19.0530391,3.51905203 C19.6953857,3.51930693 20.6473408,3.61018253 21.1563054,4.09208866 C21.1563054,4.09208866 21.5377843,4.39240987 21.5377843,4.85303545 C21.5377843,5.32367447 21.2285327,5.32374382 21.1357597,5.3237429 L17.6824333,5.3237429 C17.6824333,5.3237429 17.1215831,5.27656763 16.5961515,5.7619768 C16.6069336,5.09857562 16.6414208,4.8931209 16.6414208,4.8931209 C16.6414208,4.8931209 16.6309863,3.73143368 18.3936793,3.55118926 C18.3936793,3.55118926 18.6676304,3.51887689 19.0530391,3.51905203 L19.0530391,3.51905203 Z M42.5352809,3.51905205 C43.1776262,3.51930693 44.129582,3.61018253 44.6385473,4.09208866 C44.6385473,4.09208866 45.0200248,4.39240987 45.0200248,4.85303545 C45.0200248,5.32367447 44.7107739,5.32374466 44.6180016,5.3237429 L41.1646751,5.3237429 C41.1646751,5.3237429 40.603825,5.27656763 40.0783927,5.7619768 C40.0891748,5.09857562 40.123662,4.8931209 40.123662,4.8931209 C40.123662,4.8931209 40.1132268,3.73143453 41.8759198,3.55118926 C41.8759198,3.55118926 42.1498723,3.5188795 42.5352809,3.51905205 L42.5352809,3.51905205 Z" id="path851"></path>
            </g>
        </g>
    </g>
</svg>