<svg xmlns:xlink="http://www.w3.org/1999/xlink"  xmlns="http://www.w3.org/2000/svg" width="40" height="40" viewBox="0 0 40 40">
    <g fill="none" fill-rule="evenodd">
        <g fill="#0096CE">
            <g>
                <g>
                    <g>
                        <g>
                            <path d="M34.983 13.41c-.098-1.979-1.719-3.552-3.7-3.552l-.028.001c-1.078-.001-2.149.484-2.887 1.422-.363.464-.6 1.017-.726 1.593-.136.622-.092 1.257-.203 1.877-.103.579-.263 1.144-.486 1.685-.958 2.353-3.11 3.835-5.68 3.835-1.249 0-2.475-.4-3.49-1.135-1.907-1.382-3.383-4.014-4.103-6.243-.379-1.174-.663-2.27-1.631-3.101-.58-.5-1.25-.816-1.94-.952-.255-.057-.517-.09-.794-.09-1.342 0-2.545.64-3.332 1.645l-.007.011c-.018.02-.033.041-.05.064-.02.03-.043.059-.065.09-.036.05-.07.1-.104.15l-.008.013c-1.25 1.91-.911 4.542.832 6.044.573.491 1.202.718 1.864.83.279.062.57.092.87.092h.001c.728.041 1.473.022 2.202.119 2.553.343 5.644 1.673 6.63 4.271.245.644.403 1.415.403 2.11 0 .373-.053.702-.152.99-.152.645-.441 1.3-.936 1.665-.823.6-1.925.365-2.771.91-.233.149-.44.341-.61.56-.24.306-.4.654-.486 1.016-.058.217-.089.443-.089.678 0 1.434 1.118 2.596 2.497 2.596.296 0 .577-.057.838-.154.42-.151.81-.419 1.111-.808.5-.634.663-1.44.513-2.189-.135-.688-.077-1.674.391-2.23.44-.52 1.115-.726 1.762-.825.689-.105 1.409-.03 2.082-.231.599-.177 1.13-.543 1.52-1.037.349-.45.606-1.005.707-1.568.585-3.292 1.744-5.738 5.875-5.91.627-.027 1.262 0 1.854-.246.587-.247 1.102-.644 1.498-1.147.65-.831.918-1.859.828-2.849" transform="translate(-759 -410) translate(435 385) translate(300) translate(16 17) translate(8 8)"/>
                        </g>
                    </g>
                </g>
            </g>
        </g>
    </g>
</svg>
