<svg xmlns:xlink="http://www.w3.org/1999/xlink"  width="80" height="32" viewBox="0 0 80 32" fill="none" xmlns="http://www.w3.org/2000/svg">
<g clip-path="url(#clip0_185_15259)">
<path fill-rule="evenodd" clip-rule="evenodd" d="M44.4569 16.0884C44.9446 15.1743 45.9645 13.2631 46.3441 12.4839C46.7742 11.6022 46.5161 10.7097 45.7957 10.2689C45.0538 9.82799 44.1505 10.043 43.5699 10.8065C43.4301 10.9785 43.3226 11.1613 43.2151 11.3549C41.9142 13.7739 40.624 16.1929 39.3339 18.6119L39.3333 18.6129C39.1936 18.871 39.0753 19.1398 38.9892 19.4194C38.7312 20.2258 39.0108 20.9893 39.6774 21.3764C40.3656 21.7742 41.1183 21.656 41.7097 21C41.9355 20.7635 42.1075 20.4624 42.2688 20.1721C42.418 19.894 42.5683 19.6148 42.719 19.3349L42.7195 19.334C43.0464 18.7268 43.3752 18.1161 43.6989 17.5054C43.8267 17.2819 43.9485 17.0524 44.0688 16.8258L44.0688 16.8257C44.1105 16.7472 44.152 16.6689 44.1935 16.5914C44.1935 16.5914 44.2473 16.4732 44.3548 16.2796L44.4569 16.0884ZM26.6237 21.5269C27.3548 21.1936 27.6774 20.5054 27.4731 19.6559C27.4005 19.3836 27.2896 19.119 27.1791 18.8555L27.1791 18.8555L27.1789 18.8549L27.1782 18.8533C27.1581 18.8054 27.1381 18.7576 27.1183 18.7097C26.8871 18.2635 26.6532 17.8145 26.4193 17.3656C26.1855 16.9167 25.9516 16.4678 25.7204 16.0215C25.6398 15.871 25.5591 15.7178 25.4785 15.5646C25.3979 15.4113 25.3172 15.2581 25.2366 15.1076C25.2366 15.1076 25.172 14.9893 25.0753 14.7957L25.0611 14.7684C24.631 13.9413 23.5218 11.8082 23.0645 11C22.5806 10.1506 21.6989 9.8495 20.914 10.2043C20.129 10.5592 19.7957 11.4194 20.086 12.3226C20.1613 12.5269 20.2473 12.7312 20.3441 12.9248C20.9782 14.1447 21.6097 15.3619 22.2411 16.5791L22.2411 16.5792L22.2418 16.5805C22.8736 17.7983 23.5053 19.0161 24.1398 20.2366C24.2796 20.4947 24.4301 20.7527 24.6129 20.9785C25.129 21.6452 25.9247 21.8495 26.6237 21.5269ZM39.2043 17.5162L39.2041 17.5165L39.204 17.5167C38.731 18.409 38.258 19.3013 37.7742 20.1828C37.6129 20.4732 37.4409 20.7742 37.2151 21.0108C36.6237 21.6667 35.8817 21.785 35.1828 21.3871C34.5161 21 34.2366 20.2366 34.4946 19.4301C34.5806 19.1506 34.6989 18.8818 34.8387 18.6237C36.129 16.2043 37.4194 13.785 38.7204 11.3656C38.828 11.1721 38.9355 10.9893 39.0753 10.8172C39.6559 10.0538 40.5591 9.83874 41.3011 10.2796C42.043 10.7097 42.2903 11.6022 41.8602 12.4839C41.4806 13.263 40.4608 15.1741 39.973 16.0883L39.973 16.0884L39.871 16.2796C39.7634 16.4732 39.7097 16.5914 39.7097 16.5914C39.5269 16.9033 39.3656 17.2043 39.2043 17.5162ZM21.6344 21.5269C22.3656 21.1936 22.6882 20.5054 22.4839 19.6559C22.4183 19.3749 22.2956 19.102 22.1797 18.8444C22.1626 18.8063 22.1456 18.7686 22.129 18.7312C21.8166 18.121 21.4993 17.5107 21.1838 16.9038C21.0323 16.6124 20.8812 16.3218 20.7312 16.0323C20.6505 15.8764 20.5699 15.7232 20.4893 15.5699C20.4086 15.4167 20.328 15.2635 20.2473 15.1076C20.2473 15.1076 20.1828 14.9893 20.086 14.7957L20.0719 14.7685C19.6418 13.9415 18.5325 11.8082 18.0753 11C17.5914 10.1506 16.7097 9.8495 15.9247 10.2043C15.1398 10.5592 14.8065 11.4194 15.1075 12.3226C15.1828 12.5269 15.2688 12.7312 15.3656 12.9248C15.9946 14.1452 16.6263 15.3629 17.2581 16.5807C17.8898 17.7984 18.5215 19.0162 19.1505 20.2366C19.2903 20.4947 19.4409 20.7527 19.6237 20.9785C20.1398 21.6452 20.9355 21.8495 21.6344 21.5269Z" fill="#DC000D"/>
<path fill-rule="evenodd" clip-rule="evenodd" d="M52.2151 20.1613C52.3011 20.742 52 21.2903 51.4409 21.4624C50.5592 21.7312 49.6667 21.742 48.7957 21.3979C47.7312 20.9678 47.4086 20.0753 47.4086 19.0323C47.4015 17.9142 47.4038 16.7962 47.4062 15.6781L47.4062 15.6774C47.4074 15.1183 47.4086 14.5592 47.4086 14V11.4839V11.3656C47.4516 10.5592 48.0323 10 48.8495 10.0108C49.6237 10.0215 50.1828 10.6022 50.2043 11.4086C50.2114 11.6082 50.2091 11.803 50.2067 12.0025L50.2067 12.0025C50.2055 12.104 50.2043 12.2067 50.2043 12.3118V12.7635V12.7742H50.6344C51.1075 12.7742 51.5592 12.7742 51.8602 13.2043C52.0215 13.4301 52.129 13.7312 52.1613 14.0108C52.2043 14.4946 51.9678 14.9032 51.5161 15.0645C51.271 15.1528 51.0168 15.1874 50.7375 15.2254L50.7375 15.2254L50.6559 15.2366C50.5824 15.2479 50.506 15.2562 50.4281 15.2647L50.4281 15.2647L50.428 15.2647C50.3578 15.2724 50.2864 15.2801 50.2151 15.2903V15.7635V16.4624V18.2581C50.2258 18.8602 50.5161 19.1506 51.0968 19.1721C51.7097 19.1936 52.129 19.5592 52.2151 20.1613ZM55.2258 13.3226C53.4516 13.7635 52.2903 15.2473 52.1183 17.1721C51.9677 18.8925 52.8817 20.4946 54.4301 21.1828C55.9032 21.8387 57.4086 21.7635 58.9032 21.2688C59.6022 21.043 59.9355 20.4194 59.7312 19.8065C59.5161 19.1506 58.914 18.9247 58.1613 19.1183C57.6774 19.2473 57.1613 19.3226 56.6667 19.3118C56.0645 19.2903 55.5269 19.0645 55.2151 18.3549H55.7312H56.7419C57.5807 18.3549 58.4301 18.3549 59.2688 18.3441C60.3118 18.3226 60.7527 17.8495 60.7527 16.828C60.7527 16.043 60.4946 15.3549 60 14.7635C58.7419 13.2366 57.0968 12.8495 55.2258 13.3226ZM55.2366 16.4409C55.3548 15.8172 55.7849 15.4731 56.4301 15.4516C57.2151 15.4194 57.6774 15.7204 57.871 16.4409H55.2366ZM64.8817 19.5592C64.8925 19.0215 64.8925 18.4839 64.8925 17.9463C64.8925 17.5807 64.8925 17.2151 64.8817 16.8602V15.8387V15.6667V15.6666C64.8817 14.9997 64.8817 12.5053 64.8495 11.5914C64.8172 10.6882 64.1936 10.0753 63.3656 10.043C62.5376 10.0108 61.871 10.5699 61.7204 11.4301C61.6774 11.6237 61.6667 11.828 61.6667 12.0215V19.5592C61.6667 19.828 61.6882 20.0968 61.7419 20.3549C61.8925 21.1183 62.4731 21.6129 63.2258 21.6452C64 21.6774 64.5807 21.2473 64.785 20.4731C64.8602 20.1828 64.8817 19.8602 64.8817 19.5592Z" fill="#353535"/>
<path fill-rule="evenodd" clip-rule="evenodd" d="M42.1183 18.2903V17.043C42.1075 16.6237 42.1075 16.2151 42.129 15.8064V15.6667C42.1398 15.043 42.1613 12.4946 42.129 11.5591C42.0968 10.6559 41.4194 10.043 40.5591 10.0107C39.6989 9.97849 39.0108 10.5269 38.8495 11.3978C38.8172 11.6021 38.7957 11.8064 38.7957 12V19.5376C38.7957 19.8064 38.8172 20.0753 38.871 20.3333C39.0215 21.0968 39.6237 21.5914 40.3978 21.6237C41.1935 21.6559 41.7957 21.2258 42.0108 20.4516C42.0968 20.1613 42.1183 19.8387 42.1183 19.5376V18.2903ZM36.9677 11.6882C36.9677 12.6022 36.2581 13.3226 35.3441 13.3226C34.4301 13.3226 33.7097 12.6129 33.7097 11.6989C33.7097 10.7957 34.4301 10.0645 35.3333 10.0538C36.2366 10.0538 36.9677 10.7742 36.9677 11.6882ZM35.0215 16.172L32.6021 20.7312C32.172 21.5484 31.1613 21.8602 30.3441 21.4194C29.5269 20.9893 29.2258 19.9785 29.6559 19.1613L32.0753 14.6022C32.5054 13.7849 33.5161 13.4839 34.3333 13.914C35.1398 14.3441 35.4516 15.3548 35.0215 16.172ZM29.5753 16.8816L29.5753 16.8817C29.5242 16.9785 29.4731 17.0753 29.4194 17.172L29.2366 17.5161L29.2365 17.5162L29.2364 17.5164C28.7633 18.4088 28.2903 19.3012 27.8065 20.1828C27.6452 20.4731 27.4731 20.7742 27.2473 21.0107C26.6559 21.6667 25.9032 21.7849 25.2151 21.3871C24.5484 21 24.2688 20.2366 24.5269 19.4301C24.6129 19.1505 24.7312 18.8817 24.871 18.6237L24.871 18.6235L24.8714 18.6228C26.1616 16.2038 27.4518 13.7847 28.7527 11.3656C28.8602 11.172 28.9677 10.9892 29.1075 10.8172C29.6882 10.0538 30.5914 9.83871 31.3333 10.2796C32.0753 10.7097 32.3226 11.6021 31.8925 12.4839C31.5129 13.263 30.4931 15.1741 30.0053 16.0883L29.9032 16.2796C29.8387 16.4086 29.7849 16.5054 29.7527 16.5484C29.7419 16.5806 29.7312 16.5914 29.7312 16.5914C29.6774 16.6881 29.6264 16.7849 29.5753 16.8816ZM24.7097 16.5914L24.7097 16.5914C24.7097 16.5914 24.7742 16.4731 24.8817 16.2796C24.9123 16.2223 24.9464 16.1582 24.9837 16.0884C25.4715 15.1743 26.4914 13.263 26.871 12.4839C27.3011 11.6021 27.0538 10.7097 26.3118 10.2796C25.5699 9.83871 24.6667 10.0538 24.086 10.8172C23.9462 10.9892 23.8387 11.172 23.7312 11.3656C22.4301 13.7849 21.1398 16.2043 19.8495 18.6236L19.8495 18.6237C19.7097 18.8817 19.5914 19.1505 19.5054 19.4301C19.2473 20.2366 19.5269 21 20.1935 21.3871C20.8817 21.7849 21.6344 21.6667 22.2258 21.0107C22.4516 20.7742 22.6237 20.4731 22.7849 20.1828C23.2688 19.3011 23.7419 18.4086 24.2151 17.5161L24.2258 17.5054C24.3871 17.1936 24.5484 16.8925 24.7097 16.5914Z" fill="#FF0000"/>
</g>
<defs>
<clipPath id="clip0_185_15259">
<rect width="50" height="11.7204" fill="white" transform="translate(15 10)"/>
</clipPath>
</defs>
</svg>
